<svg width="88" height="55" viewBox="0 0 88 55" fill="none" xmlns="http://www.w3.org/2000/svg">
<path fill-rule="evenodd" clip-rule="evenodd" d="M35.1418 24.7595L25.0473 25.2247L34.6322 25.9139L35.1418 24.7595ZM33.9343 27.5044L23.8159 27.9702L33.4364 28.6619L33.9343 27.5044ZM32.7268 30.2724L22.6211 30.7315L32.2299 31.4226L32.7268 30.2724ZM31.5442 33.0265L21.4258 33.4929L31.0233 34.1828L31.5442 33.0265ZM43.9134 10.9042L31.0294 11.4975L43.95 12.4267L43.9134 10.9042ZM43.8317 8.1799L32.2576 8.70521L43.8683 9.56695L43.8317 8.1799ZM43.7491 5.55217L33.4369 5.99124L43.7989 6.73578L43.7491 5.55217ZM43.6797 2.8546L34.6406 3.24569L43.7154 3.93921L43.6797 2.8546ZM43.621 0.673828H35.7594L43.6328 1.21431L43.621 0.673828ZM30.325 35.7793L20.231 36.2524H30.119L30.325 35.7793Z" fill="white"/>
<path fill-rule="evenodd" clip-rule="evenodd" d="M65.31 1.72034H50.8617L50.452 2.66192L57.6822 3.15994C57.767 3.15994 57.767 3.31606 57.6458 3.31606L50.0306 3.64647L49.296 5.31541L56.4768 5.86608C56.5733 5.88182 56.5495 6.05367 56.4652 6.05367L48.8374 6.37923L48.1275 7.97738L55.2967 8.49416C55.4533 8.5099 55.4533 8.68236 55.2967 8.68236L47.6815 9.0291L46.9585 10.7005L54.1039 11.2324C54.2605 11.2481 54.2489 11.4357 54.1039 11.4357L46.4887 11.7879L45.7532 13.4387L52.9102 13.9549C53.0183 13.9706 53.0314 14.1431 52.8864 14.1431L30.9437 15.0973L51.7659 16.5993C51.8978 16.5993 51.8862 16.8183 51.7412 16.8183L29.763 17.8356L50.5853 19.3369C50.6818 19.3369 50.7055 19.5402 50.5606 19.5402L28.546 20.5726L49.3683 22.0745C49.4531 22.0902 49.5365 22.2936 49.3566 22.3093L27.3771 23.3247L48.1988 24.826C48.259 24.8418 48.3191 25.0451 48.1751 25.0451L37.113 25.557L37.1494 26.8532L47.0061 27.5642C47.0779 27.58 47.1142 27.7676 46.9814 27.7676L37.1857 28.2196L37.2337 29.6695L45.7895 30.2867C45.8734 30.3025 45.9098 30.5215 45.7648 30.5215L37.2818 30.9082L37.3186 32.4991L44.6089 33.0249C44.6928 33.0401 44.717 33.2434 44.5725 33.2434L37.3549 33.578L37.4029 35.3281L43.4278 35.7625C43.5126 35.7783 43.5126 35.9665 43.3919 35.9665L37.4272 36.2466L37.4514 36.9988H56.9001C62.057 36.9988 66.6836 32.1178 67.5514 28.2377C68.4198 24.3583 68.4198 20.854 64.2743 19.1021C66.5885 18.4135 70.6124 15.0253 71.408 10.341C72.1295 6.08514 70.9251 1.73607 65.31 1.72034ZM55.5274 28.8907H49.551L52.9247 21.1311H57.3592C61.9382 21.1311 59.7204 28.8907 55.5274 28.8907ZM63.2628 12.2442C63.0699 13.1827 61.6231 15.5609 59.7927 15.5609H55.3582L58.2014 9.0533H60.4671C63.3584 9.17857 63.4549 11.3062 63.2628 12.2442ZM87.2024 48.2427C87.2024 45.2359 85.2769 42.7173 82.9608 42.7173C80.5846 42.7173 78.6447 45.2758 78.6447 48.4188C78.6423 49.1582 78.7527 49.8908 78.9695 50.5745C79.1864 51.2581 79.5053 51.8792 79.9081 52.402C80.3108 52.9248 80.7892 53.3388 81.3158 53.6202C81.8424 53.9017 82.4067 54.0449 82.9762 54.0417C84.7348 54.0417 86.4044 52.4799 86.9008 50.3516H84.705C84.2687 51.2496 83.6982 51.6593 82.9152 51.6593C81.9228 51.6593 81.0363 50.7807 80.7501 49.5311H87.0961C87.1721 48.9265 87.2024 48.6331 87.2024 48.2427ZM80.6904 47.49C80.9762 46.0256 81.8785 45.0882 82.9911 45.0882C84.1047 45.0882 84.9767 46.0062 85.2471 47.49H80.6904ZM58.6927 43.2383V44.1152C58.0616 43.2365 57.1471 42.7367 56.1692 42.7367C54.0037 42.7367 52.1575 45.1378 52.1575 48.2621C52.1575 51.2097 53.7907 53.8535 56.2121 53.8535C57.2799 53.8535 58.0919 53.5334 58.8586 52.4012V53.7876H60.6941V43.2383H58.6927ZM56.4512 51.6176C55.7824 51.6176 55.1409 51.2726 54.668 50.6586C54.195 50.0446 53.9293 49.2118 53.9293 48.3435C53.9293 47.4752 54.195 46.6424 54.668 46.0284C55.1409 45.4144 55.7824 45.0695 56.4512 45.0695C57.12 45.0695 57.7615 45.4144 58.2344 46.0284C58.7074 46.6424 58.973 47.4752 58.973 48.3435C58.973 49.2118 58.7074 50.0446 58.2344 50.6586C57.7615 51.2726 57.12 51.6176 56.4512 51.6176ZM4.00057 42.7167C3.1737 42.7167 2.54213 43.0876 1.84996 44.0056V42.9709H0V53.7876H2.00052V48.6912C2.00052 47.3054 2.09047 45.0985 3.56429 45.0985C4.94769 45.0985 5.09824 47.168 5.09824 48.4957V53.787H7.09829V47.988C7.09829 46.4649 7.00833 45.743 6.69231 44.8837C6.22621 43.5953 5.12854 42.7167 4.00057 42.7167ZM16.4288 48.2427C16.4288 45.2359 14.5037 42.7173 12.1877 42.7173C9.81148 42.7173 7.87156 45.2758 7.87156 48.4188C7.86921 49.1581 7.97964 49.8906 8.19646 50.5742C8.41329 51.2578 8.73222 51.8789 9.13486 52.4016C9.5375 52.9243 10.0159 53.3384 10.5424 53.6199C11.0689 53.9014 11.6332 54.0448 12.2026 54.0417C13.9621 54.0417 15.6312 52.4799 16.1276 50.3516H13.9323C13.496 51.2496 12.9246 51.6593 12.1425 51.6593C11.1501 51.6593 10.2627 50.7807 9.97695 49.5311H16.3229C16.3989 48.9265 16.4288 48.6331 16.4288 48.2427ZM9.91728 47.49C10.203 46.0256 11.1054 45.0882 12.2184 45.0882C13.3315 45.0882 14.2036 46.0062 14.4744 47.49H9.91728ZM49.338 53.7785H51.338V39.3498H49.338V53.7785ZM65.9709 42.7167C65.1436 42.7167 64.5115 43.0876 63.8198 44.0056V42.9709H61.9699V53.7876H63.9708V48.6912C63.9708 47.3054 64.0608 45.0985 65.5346 45.0985C66.9175 45.0985 67.0686 47.168 67.0686 48.4957V53.787H69.0686V47.988C69.0686 46.4649 68.9787 45.743 68.6626 44.8837C68.1965 43.5953 67.0989 42.7167 65.9709 42.7167ZM74.0615 45.0991C74.9783 45.0991 75.5046 45.49 76.0014 46.5829H78.2565C77.6403 44.2598 76.0616 42.7167 74.1361 42.7167C71.6998 42.7167 69.7445 45.2352 69.7445 48.3402C69.7445 51.4639 71.7147 54.0411 74.1361 54.0411C74.7537 54.0369 75.3639 53.8664 75.9281 53.5404C76.4924 53.2144 76.9984 52.7399 77.4142 52.147C77.8356 51.5419 77.9861 51.1903 78.2565 50.2342H76.0014C75.5344 51.171 74.9336 51.6587 74.1818 51.6587C72.7825 51.6587 71.7454 50.253 71.7454 48.3783C71.7454 46.4855 72.7378 45.0991 74.0615 45.0991ZM24.0738 49.5704L22.6573 42.9715H21.0478L19.616 49.5704L17.9226 42.9715H16.1579L18.9396 53.7876H20.221L21.8453 46.7789L23.424 53.7876H24.7687L27.4363 42.9715H25.7825L24.0738 49.5704ZM34.79 42.7282C33.8125 42.7282 32.8981 43.228 32.2665 44.1061V39.3504H30.266V53.7785H32.1006V52.3927C32.8678 53.5249 33.6797 53.8444 34.7476 53.8444C37.169 53.8444 38.8022 51.2012 38.8022 48.253C38.8027 45.1294 36.9559 42.7282 34.79 42.7282ZM34.508 51.6176C33.8391 51.6176 33.1977 51.2726 32.7248 50.6586C32.2518 50.0446 31.9861 49.2118 31.9861 48.3435C31.9861 47.4752 32.2518 46.6424 32.7248 46.0284C33.1977 45.4144 33.8391 45.0695 34.508 45.0695C35.1768 45.0695 35.8183 45.4144 36.2912 46.0284C36.7641 46.6424 37.0298 47.4752 37.0298 48.3435C37.0298 49.2118 36.7641 50.0446 36.2912 50.6586C35.8183 51.2726 35.1768 51.6176 34.508 51.6176ZM46.0012 43.2383V44.1152C45.3696 43.2365 44.4556 42.7367 43.4777 42.7367C41.3122 42.7367 39.465 45.1378 39.465 48.2621C39.465 51.2097 41.0987 53.8535 43.5196 53.8535C44.5875 53.8535 45.3994 53.5334 46.1666 52.4012V53.7876H48.0012V43.2383H46.0012ZM43.7601 51.6176C43.0913 51.6176 42.4498 51.2726 41.9769 50.6586C41.504 50.0446 41.2383 49.2118 41.2383 48.3435C41.2383 47.4752 41.504 46.6424 41.9769 46.0284C42.4498 45.4144 43.0913 45.0695 43.7601 45.0695C44.429 45.0695 45.0704 45.4144 45.5433 46.0284C46.0163 46.6424 46.282 47.4752 46.282 48.3435C46.282 49.2118 46.0163 50.0446 45.5433 50.6586C45.0704 51.2726 44.429 51.6176 43.7601 51.6176Z" fill="white"/>
</svg>
