<svg width="52" height="40" viewBox="0 0 52 40" fill="none" xmlns="http://www.w3.org/2000/svg">
<path fill-rule="evenodd" clip-rule="evenodd" d="M49.059 26.1974H49.1967C49.2814 26.1974 49.3424 26.215 49.3808 26.2581C49.3963 26.2667 49.4042 26.2757 49.4115 26.284C49.4728 26.3447 49.5419 26.4665 49.6263 26.6314L49.7567 26.8915H50.0327L49.8642 26.5707C49.7795 26.423 49.703 26.3102 49.6494 26.2495C49.6138 26.2119 49.5721 26.1825 49.5267 26.1629C49.6494 26.1542 49.7488 26.1021 49.8255 26.0152C49.9023 25.9283 49.941 25.8244 49.941 25.7027C49.941 25.6161 49.9175 25.5378 49.8718 25.4684C49.8289 25.3931 49.7637 25.3377 49.6878 25.3121C49.6266 25.2862 49.5348 25.2687 49.4118 25.2687C49.3889 25.2687 49.3582 25.26 49.3277 25.26H48.8295V26.8912H49.0593L49.059 26.1974ZM49.059 25.4857H49.4115C49.4807 25.4946 49.5264 25.5032 49.5571 25.5119C49.5988 25.5253 49.6344 25.5563 49.6565 25.5985C49.6794 25.633 49.6873 25.6768 49.6873 25.7289C49.6881 25.7618 49.6823 25.7945 49.6704 25.8245C49.6584 25.8545 49.6405 25.8811 49.6181 25.9021C49.5797 25.9456 49.5106 25.9628 49.4112 25.9718H49.0587V25.4857H49.059ZM14.6464 25.6681H16.7154L14.6464 21.7635L12.8991 18.4752L5.47418 23.525L6.60818 25.6681H14.6464ZM33.8948 25.6681H44.002L37.7105 13.7984L30.7533 0.696411L27.8872 2.64875L23.3357 5.74618L27.8872 14.3277L33.8948 25.6681ZM30.3626 29.5815C29.6497 29.0612 28.8144 28.7573 27.9101 28.7573H27.8872C25.3895 28.7745 23.3588 31.0826 23.3588 33.9112C23.3588 36.7402 25.3895 39.0479 27.8872 39.0655H27.9101C28.8144 39.0655 29.6497 38.7619 30.3626 38.2412V38.7791H32.4543V25.6685H30.3626V29.5815ZM30.3626 34.4494C30.1405 35.751 29.1211 36.7485 27.9101 36.7485H27.8872C26.5156 36.7312 25.4047 35.4644 25.4047 33.9112C25.4047 32.3583 26.5156 31.0915 27.8872 31.0826H27.9101C29.1211 31.0826 30.1403 32.072 30.3626 33.3733V34.4494ZM40.186 29.5815C39.4568 29.0426 38.6047 28.7562 37.7339 28.7573H37.7105C35.2128 28.7745 33.1824 31.0826 33.1824 33.9112C33.1824 36.7402 35.2128 39.0479 37.7105 39.0655H37.7339C38.6382 39.0655 39.481 38.7619 40.186 38.2412V38.7791H42.2781V29.0174H40.186V29.5815ZM40.186 34.4494C39.9638 35.751 38.9444 36.7485 37.7339 36.7485H37.7105C36.3394 36.7312 35.2283 35.4644 35.2283 33.9112C35.2283 32.3583 36.3394 31.0915 37.7105 31.0826H37.7339C38.9444 31.0826 39.9636 32.072 40.186 33.3733V34.4494ZM49.7183 33.2692C49.6418 33.2254 49.5343 33.1822 49.4115 33.1301C48.9441 32.948 48.1855 32.7224 47.128 32.4622C46.2009 32.2276 45.7335 31.9243 45.7335 31.5424C45.7335 31.2734 45.8176 31.0564 45.9785 30.9004C46.1932 30.692 46.576 30.5878 47.128 30.5878C47.6874 30.5878 48.0935 30.7269 48.3311 30.9956C48.4768 31.1605 48.5837 31.4552 48.6529 31.8719H50.8752C50.8752 30.6399 50.4306 29.755 49.5571 29.2171C49.5111 29.1831 49.4624 29.1541 49.4115 29.1305C48.8059 28.8093 48.0015 28.6444 46.9979 28.6444C45.7792 28.6444 44.86 29.0091 44.2473 29.7464C43.757 30.3363 43.5194 31.0564 43.5194 31.9068C43.5194 32.9659 43.9789 33.729 44.9139 34.2237C45.2664 34.4145 46.1244 34.6836 47.4887 35.0134C48.4005 35.2391 48.8598 35.5602 48.8598 35.968C48.8598 36.2112 48.7683 36.4193 48.569 36.6101C48.3159 36.853 47.9326 36.9747 47.4195 36.9747C46.7374 36.9747 46.2548 36.8447 45.9714 36.5931C45.6875 36.3502 45.5419 35.9945 45.5419 35.5433H43.2126C43.2126 36.7408 43.6571 37.6343 44.5535 38.224C45.2664 38.6839 46.2011 38.9184 47.3586 38.9184C48.1322 38.9184 48.8216 38.7708 49.4118 38.4848C49.5345 38.424 49.6421 38.363 49.7569 38.2936C50.6688 37.7213 51.1286 36.8101 51.1286 35.5609C51.1283 34.536 50.6604 33.7722 49.7183 33.2692ZM7.20594 29.5815C6.47349 29.0437 5.61925 28.7574 4.7463 28.7573H4.72317C2.23304 28.7745 0.202393 31.0826 0.202393 33.9112C0.202393 36.7402 2.23304 39.0479 4.72317 39.0655H4.7463C5.65057 39.0655 6.49331 38.7619 7.20594 38.2412V38.7791H9.29783V29.0174H7.20594V29.5815ZM7.20594 34.4494C6.98382 35.751 5.96442 36.7485 4.7463 36.7485H4.72317C3.35942 36.7312 2.24828 35.4644 2.24828 33.9112C2.24828 32.3583 3.35942 31.0915 4.72317 31.0826H4.7463C5.96469 31.0826 6.98382 32.072 7.20594 33.3733V34.4494ZM20.263 27.9851H22.5389V25.7202H20.263V27.9851ZM20.263 38.7788H22.5389V28.7573H20.263V38.7788ZM17.1292 29.5815C16.3966 29.0437 15.5423 28.7574 14.6692 28.7573H14.6464C12.1484 28.7745 10.1177 31.0826 10.1177 33.9112C10.1177 36.7402 12.1481 39.0479 14.6464 39.0655H14.6692C15.5423 39.0654 16.3967 38.7792 17.1292 38.2412V38.7791H19.221V25.6685H17.1292V29.5815ZM17.1292 34.4494C16.907 35.751 15.8876 36.7485 14.6692 36.7485H14.6464C13.2747 36.7312 12.1636 35.4644 12.1636 33.9112C12.1636 32.3583 13.2747 31.0915 14.6464 31.0826H14.6692C15.8876 31.0826 16.9068 32.072 17.1292 33.3733V34.4494ZM30.3545 25.6681L27.8872 21.0003L21.8263 9.58151L14.6464 14.4753L14.4011 14.6399L14.6464 15.0998L20.2552 25.6681H30.3545Z" fill="white"/>
</svg>
