<svg width="93" height="34" viewBox="0 0 93 34" fill="none" xmlns="http://www.w3.org/2000/svg">
<path fill-rule="evenodd" clip-rule="evenodd" d="M11.9242 1.62294C5.93202 8.73301 0.186619 17.5501 0.129008 24.1406C0.10657 26.6203 0.890089 28.7851 2.76944 30.4247C5.47416 32.7862 8.4542 33.6189 11.4197 33.6238C15.7533 33.6299 20.0566 31.8634 23.426 30.5013C29.1004 28.2085 91.8262 0.686695 91.8262 0.686695C92.4314 0.380332 92.318 -0.00139359 91.5606 0.189164C91.255 0.266367 23.2738 18.8804 23.2738 18.8804C21.9861 19.2483 20.6555 19.4408 19.3173 19.4526C14.0929 19.4839 9.44391 16.5538 9.48151 10.3794C9.49606 7.96342 10.228 5.04991 11.9242 1.62294Z" fill="white"/>
</svg>
