<svg width="181" height="30" viewBox="0 0 181 30" fill="none" xmlns="http://www.w3.org/2000/svg">
<path fill-rule="evenodd" clip-rule="evenodd" d="M173.862 1.56261H180.2C179.498 2.11692 179.077 2.79581 179.077 3.72499V25.9328C179.077 26.8608 179.516 27.5226 180.2 28.0758H173.862C174.546 27.5226 174.967 26.8437 174.967 25.9328V3.72385C174.968 2.79466 174.564 2.11578 173.862 1.56261ZM26.956 11.1025C25.9203 8.83378 24.7792 6.60054 22.8652 4.97533C20.8288 3.2244 18.2465 2.17064 15.5777 2.17064C8.48462 2.17064 5.30591 8.69092 5.30591 15.1049C5.30591 21.3052 8.34421 27.5752 15.1914 27.5752C17.9826 27.5752 20.7052 26.3431 22.4249 24.1087V19.1062C22.4249 17.7485 21.9857 16.8741 20.9501 16.0707H28.2016C27.4288 16.9633 26.956 17.8742 26.956 19.1062V24.1087C23.6368 27.254 19.5113 29.1821 14.9285 29.1821C6.83461 29.1821 0.214355 23.1258 0.214355 14.6935C0.214355 6.31482 6.74587 0.579712 14.7353 0.579712C19.7044 0.579712 23.7244 2.43808 26.956 6.17196V11.1025ZM44.7242 1.56261H51.5544C50.6233 2.25864 50.3077 3.04497 50.3077 4.20616V20.4114C50.3077 24.8585 55.434 27.0391 59.1923 27.0391C62.8799 27.0391 67.6906 24.8425 67.6906 20.5006V4.20616C67.6906 3.11583 67.4267 2.36608 66.7078 1.56261H70.4301C69.6753 2.34893 69.3945 3.13411 69.3945 4.20616V20.5006C69.3945 26.3603 62.6002 28.6106 57.8939 28.6106C53.0483 28.6106 45.972 26.4323 45.972 20.4114V4.20616C45.9709 3.09868 45.5317 2.27693 44.7242 1.56261ZM113.129 11.1916C112.217 8.85093 111.146 6.79713 109.267 5.09991C107.248 3.27697 104.789 2.13407 102.069 2.13407C95.0466 2.13407 91.4467 8.38691 91.4467 14.8729C91.4467 21.3932 95.187 27.5569 102.122 27.5569C107.284 27.5569 110.972 23.8584 113.13 19.4091V24.2333C109.919 27.4677 105.774 29.1112 101.245 29.1112C92.8507 29.1112 86.5652 23.591 86.5652 14.7838C86.5652 6.22681 92.6047 0.599148 100.84 0.599148C105.405 0.599148 109.828 2.20721 113.129 5.40506V11.1916ZM157.165 11.1916C156.253 8.85093 155.179 6.79713 153.302 5.09991C151.284 3.27697 148.825 2.13407 146.105 2.13407C139.08 2.13407 135.498 8.38691 135.498 14.8729C135.498 21.3932 139.221 27.5569 146.158 27.5569C151.32 27.5569 155.023 23.8584 157.166 19.4091V24.2333C153.953 27.4677 149.826 29.1112 145.28 29.1112C136.887 29.1112 130.602 23.591 130.602 14.7838C130.602 6.22681 136.642 0.599148 144.875 0.599148C149.44 0.599148 153.865 2.20721 157.166 5.40506L157.165 11.1916Z" fill="white"/>
</svg>
