<svg width="91" height="70" viewBox="0 0 91 70" fill="none" xmlns="http://www.w3.org/2000/svg">
<path fill-rule="evenodd" clip-rule="evenodd" d="M70.5659 14.6915C73.9819 9.8953 71.6876 0 65.8309 0H46.3843V6.2248L44.6198 7.52816V0H25.1732C19.3165 0 17.0222 9.91572 20.4382 14.7126C15.5446 18.9936 16.7265 31.0873 23.8968 31.0988H44.6198V24.9938L46.3843 23.6905V31.0988H67.1073C74.2772 31.0873 75.459 18.9936 70.5659 14.7126V14.6915ZM50.9831 13.6522L51.7311 13.0996L50.6433 10.1954L49.3878 11.1231V7.71465L51.7311 5.98387L50.7727 3.42684H65.8309C70.2979 3.37103 70.3735 13.708 65.8309 13.6522H50.9831ZM49.3878 3.42684H50.1736L49.3878 4.0074V3.42684ZM41.6163 27.6005H40.8305L41.6163 27.0193V27.6005ZM46.3843 9.93341V13.3412L44.6198 14.6446V11.2361L46.3843 9.93341ZM41.6163 3.42684V9.74761L39.0185 11.6669L39.7626 13.6522H25.1732C20.6306 13.708 20.7057 3.37103 25.1732 3.42684H41.6163ZM40.3657 17.7876L39.019 18.7826L40.1073 21.6868L41.6168 20.5712V23.5053L39.019 25.424L39.8412 27.6182H24.1974C19.6548 27.672 19.73 17.7338 24.1974 17.7876H40.3657ZM44.6198 21.2859V18.3518L46.3843 17.0484V19.9825L44.6198 21.2859ZM49.3878 27.6182V21.4717L51.7311 19.7409L50.9991 17.7876H66.8072C71.2741 17.7338 71.3498 27.672 66.8072 27.6182H49.3878ZM0.199951 53.3777H4.89619C8.11443 53.3947 8.22495 48.2147 6.24572 47.5259C8.07662 46.2287 7.93071 41.6945 4.46476 41.6945H0.199951V53.3777ZM4.95581 46.7868L1.51459 46.7799L1.51653 43.2735H4.95581C6.35819 43.2456 6.37467 46.8133 4.95581 46.7868ZM4.86419 51.8048H1.51556L1.51701 48.0166H4.86371C6.91565 48.0098 6.93358 51.8409 4.86419 51.8048ZM12.1029 48.9667C11.9313 48.9599 11.8043 48.7489 11.8707 48.5066L13.419 43.8078C13.5126 43.5695 13.785 43.5723 13.8601 43.8105L15.4162 48.4855C15.4335 48.5354 15.4414 48.5906 15.4391 48.646C15.4368 48.7013 15.4244 48.7549 15.4031 48.8015C15.3817 48.8482 15.3522 48.8863 15.3173 48.9123C15.2824 48.9382 15.2433 48.9511 15.2039 48.9497L12.1029 48.9667ZM16.2761 50.5301L17.2897 53.3961H18.585L14.3192 41.6741H13.024L8.75817 53.3961H10.0534L11.067 50.5301H16.2761ZM63.6859 48.9667C63.5138 48.9599 63.3868 48.7489 63.4532 48.5066L65.002 43.8078C65.0956 43.5695 65.3675 43.5723 65.4421 43.8105L66.9987 48.4855C67.016 48.5354 67.0239 48.5906 67.0216 48.646C67.0193 48.7013 67.0069 48.7549 66.9856 48.8015C66.9642 48.8482 66.9347 48.8863 66.8998 48.9123C66.8649 48.9382 66.8258 48.9511 66.7864 48.9497L63.6859 48.9667ZM67.8581 50.5301L68.8722 53.3961H70.1675L65.9012 41.6741H64.606L60.3407 53.3961H61.6359L62.649 50.5301H67.8581ZM84.4089 48.9667C84.2368 48.9599 84.1098 48.7489 84.1762 48.5066L85.725 43.8078C85.8185 43.5695 86.0905 43.5723 86.1651 43.8105L87.7216 48.4855C87.739 48.5354 87.7469 48.5906 87.7446 48.646C87.7423 48.7013 87.7299 48.7549 87.7085 48.8015C87.6872 48.8482 87.6577 48.8863 87.6228 48.9123C87.5879 48.9382 87.5488 48.9511 87.5093 48.9497L84.4089 48.9667ZM88.5811 50.5301L89.5952 53.3961H90.8904L86.6242 41.6741H85.3289L81.0636 53.3961H82.3589L83.372 50.5301H88.5811ZM20.443 41.6741V53.3764H26.5106V51.9525H21.668V41.6741H20.443ZM57.4268 41.6741V53.3764H58.6508V41.6741H57.4268ZM28.5524 41.6945V53.3764H34.714V51.8144H29.6498V47.9989H34.3945V46.7534H29.6644V43.2347H34.586V41.6945H28.5524ZM36.6472 53.3764V41.6741H38.4349L43.8689 51.8144V41.6741H44.9674V53.3764H43.2073L37.7592 43.2551V53.3764H36.6472ZM70.9314 47.208C70.9305 42.8345 72.8801 40.9485 75.7847 40.9485C79.5149 40.9485 79.6559 44.0255 79.6559 44.3624H78.3326C78.3326 43.4933 77.5162 42.4642 75.8405 42.4656C73.8123 42.467 72.2228 43.8744 72.2228 47.2087C72.2228 49.6997 73.5927 51.928 75.8405 51.928C77.0087 51.928 78.0369 51.7763 78.572 51.4217V48.1582H75.855V46.9127H79.6419V52.5413C78.8532 53.0156 77.5448 53.505 75.8405 53.5064C72.7633 53.5077 70.9314 51.1161 70.9314 47.208ZM48.459 47.2149C48.459 49.9495 49.9351 51.6374 51.5769 51.6374C53.3608 51.6374 54.0782 49.7841 54.069 49.7644H55.3924C55.3783 49.8046 55.0971 53.2232 51.5629 53.2232C49.2593 53.2232 47.221 51.3393 47.221 47.2149C47.221 43.6179 48.6214 40.6137 51.5629 40.6137C54.9701 40.6137 55.3783 44.0323 55.3924 44.0725H54.069C54.0787 44.0528 53.3608 42.1995 51.5769 42.1995C49.5589 42.1995 48.4663 44.4019 48.459 47.2149ZM35.5221 64.0462H37.3045C38.1867 64.0462 38.6021 64.1673 38.9565 64.3722C39.4325 64.6526 39.7525 65.1311 39.7525 65.7239C39.7525 66.3153 39.4325 66.7938 38.9565 67.0742C38.6021 67.2791 38.1867 67.4009 37.3045 67.4009H36.1624V69.6618H35.5221V64.0462ZM36.1619 66.8925H37.0878C37.7713 66.8925 38.0049 66.8925 38.368 66.7489C38.8697 66.5426 39.1121 66.1479 39.1121 65.7239C39.1121 65.2985 38.8697 64.9037 38.368 64.6989C38.0045 64.5539 37.7713 64.5539 37.0878 64.5539H36.1619V66.8925ZM41.7918 64.0462H42.5097L45.2606 69.6625H44.5602L43.6343 67.7725H40.6584L39.7243 69.6625H39.0578L41.7918 64.0462ZM40.9003 67.2648H43.3832L42.1549 64.6832L40.9003 67.2648ZM45.9601 64.0462H47.5865C48.4425 64.0462 48.8667 64.1367 49.1609 64.2579C49.8783 64.5546 50.3025 65.1699 50.3025 65.86C50.3025 66.6733 49.636 67.5003 48.3994 67.5683L50.2075 69.6632H49.4028L47.2311 67.1205C48.0446 67.1205 48.3218 67.1137 48.6069 67.0381C49.3073 66.8625 49.6626 66.3466 49.6626 65.8457C49.6626 65.406 49.3766 64.95 48.9622 64.7676C48.5817 64.5934 48.252 64.5553 47.7164 64.5553H46.6V69.6639H45.9601V64.0462ZM50.7436 64.0462H51.3835V69.6625H50.7436V64.0462ZM52.8688 68.0917C52.9037 68.7975 53.4141 69.2535 54.2018 69.2535C54.8761 69.2535 55.4903 68.7975 55.4903 68.138C55.4903 67.2716 54.4951 67.0517 54.0627 66.9374C53.4834 66.7856 52.4019 66.5733 52.4019 65.4578C52.4019 64.5845 53.1897 63.9461 54.2018 63.9461C55.2479 63.9461 55.975 64.6519 55.975 65.472H55.3352C55.3352 64.9031 54.8068 64.4552 54.2018 64.4552C53.466 64.4552 53.0418 64.9487 53.0418 65.4346C53.0418 66.1179 53.7253 66.2758 54.5644 66.4889C56.1389 66.8612 56.1301 67.9474 56.1301 68.1135C56.1301 68.9785 55.3347 69.7619 54.2013 69.7619C53.37 69.7619 52.2546 69.3284 52.2284 68.091L52.8688 68.0917Z" fill="white"/>
</svg>
