<svg width="21" height="21" viewBox="0 0 21 21" fill="none" xmlns="http://www.w3.org/2000/svg">
<rect width="21" height="21" rx="10.5" fill="black" fill-opacity="0.15"/>
<path d="M4.76415 6.35363L8.9847 9.54083L8.98611 9.542C9.45474 9.88567 9.6892 10.0576 9.946 10.124C10.173 10.1827 10.4116 10.1827 10.6386 10.124C10.8956 10.0575 11.1307 9.88511 11.6002 9.54083C11.6002 9.54083 14.3073 7.46338 15.8206 6.35363M4.07312 13.1258V7.87402C4.07312 7.1 4.07312 6.7127 4.22376 6.41706C4.35626 6.15701 4.56753 5.94574 4.82758 5.81323C5.12322 5.6626 5.51052 5.6626 6.28455 5.6626H14.3005C15.0745 5.6626 15.461 5.6626 15.7566 5.81323C16.0167 5.94574 16.2286 6.15701 16.3611 6.41706C16.5116 6.71241 16.5116 7.09924 16.5116 7.87175V13.1282C16.5116 13.9007 16.5116 14.287 16.3611 14.5823C16.2286 14.8424 16.0167 15.054 15.7566 15.1865C15.4613 15.337 15.075 15.337 14.3025 15.337H6.28228C5.50976 15.337 5.12293 15.337 4.82758 15.1865C4.56753 15.054 4.35626 14.8424 4.22376 14.5823C4.07312 14.2867 4.07312 13.8999 4.07312 13.1258Z" stroke="black" stroke-width="1.55481" stroke-linecap="round" stroke-linejoin="round"/>
</svg>
