<svg width="48" height="72" viewBox="0 0 48 72" fill="none" xmlns="http://www.w3.org/2000/svg">
<path d="M21.7926 55.525C22.2566 56.2322 23.0721 56.7037 24 56.7037C24.9279 56.7037 25.7434 56.2322 26.2214 55.525L41.7153 31.923C43.7961 28.7475 45.0053 25.2529 45.0053 21.2037C44.9912 9.4998 35.6696 0.5 24 0.5C12.3304 0.5 3.00879 9.4998 3.00879 21.2037C3.00879 25.2529 4.21793 28.7475 6.29877 31.923L21.7926 55.525ZM24 9.375C30.6221 9.375 35.993 14.6723 35.993 21.2037C35.993 27.7352 30.6221 33.0324 24 33.0324C17.3779 33.0324 12.007 27.7352 12.007 21.2037C12.007 14.6723 17.3779 9.375 24 9.375ZM39.3814 45.3604L24 65.5787L8.61863 45.3604C3.36028 48.0783 0 52.1414 0 56.7037C0 64.8715 10.7417 71.5 24 71.5C37.2583 71.5 48 64.8715 48 56.7037C48 52.1414 44.6397 48.0783 39.3814 45.3604Z" fill="white"/>
</svg>
