<svg width="21" height="21" viewBox="0 0 21 21" fill="none" xmlns="http://www.w3.org/2000/svg">
<rect width="21" height="21" rx="10.5" fill="black" fill-opacity="0.15"/>
<path d="M10.2923 3.58984C8.48178 3.58984 7.00989 5.06173 7.00989 6.87223C7.00989 8.64817 8.39885 10.0855 10.2093 10.1477C10.2646 10.1408 10.3199 10.1408 10.3614 10.1477C10.3752 10.1477 10.3821 10.1477 10.3959 10.1477C10.4028 10.1477 10.4028 10.1477 10.4097 10.1477C12.1788 10.0855 13.5677 8.64817 13.5747 6.87223C13.5747 5.06173 12.1028 3.58984 10.2923 3.58984Z" fill="black"/>
<path d="M13.8028 11.986C11.8748 10.7006 8.73061 10.7006 6.78882 11.986C5.91121 12.5733 5.42749 13.368 5.42749 14.218C5.42749 15.0679 5.91121 15.8557 6.78191 16.4362C7.74935 17.0857 9.02084 17.4105 10.2923 17.4105C11.5638 17.4105 12.8353 17.0857 13.8028 16.4362C14.6734 15.8488 15.1572 15.061 15.1572 14.2042C15.1503 13.3542 14.6734 12.5664 13.8028 11.986Z" fill="black"/>
</svg>
