<svg width="21" height="21" viewBox="0 0 21 21" fill="none" xmlns="http://www.w3.org/2000/svg">
<rect width="21" height="21" rx="10.5" fill="black" fill-opacity="0.15"/>
<path d="M8.77402 5.14954C8.56414 4.62483 8.05595 4.28076 7.49082 4.28076H5.58996C4.86684 4.28076 4.28064 4.86682 4.28064 5.58994C4.28064 11.7364 9.26349 16.7193 15.41 16.7193C16.1331 16.7193 16.7192 16.133 16.7192 15.4099L16.7195 13.5087C16.7195 12.9436 16.3755 12.4355 15.8508 12.2256L14.0289 11.4971C13.5576 11.3086 13.021 11.3934 12.631 11.7184L12.1608 12.1106C11.6117 12.5682 10.8037 12.5318 10.2982 12.0264L8.97426 10.7011C8.46881 10.1957 8.43146 9.38838 8.88907 8.83926L9.28115 8.36909C9.60613 7.97911 9.69173 7.44233 9.5032 6.971L8.77402 5.14954Z" stroke="black" stroke-width="1.55481" stroke-linecap="round" stroke-linejoin="round"/>
</svg>
