<svg width="24" height="24" viewBox="0 0 24 24" fill="none" xmlns="http://www.w3.org/2000/svg">
<path d="M22.5 6H18V4.8C18 3.52696 17.3679 2.30606 16.2426 1.40589C15.1174 0.505713 13.5913 0 12 0C10.4087 0 8.88258 0.505713 7.75736 1.40589C6.63214 2.30606 6 3.52696 6 4.8V6H1.5C1.10218 6 0.720645 6.12643 0.43934 6.35147C0.158036 6.57652 0 6.88174 0 7.2V20.4C0 21.3548 0.474106 22.2705 1.31802 22.9456C2.16193 23.6207 3.30653 24 4.5 24H19.5C20.6935 24 21.8381 23.6207 22.682 22.9456C23.5259 22.2705 24 21.3548 24 20.4V7.2C24 6.88174 23.842 6.57652 23.5607 6.35147C23.2794 6.12643 22.8978 6 22.5 6ZM9 4.8C9 4.16348 9.31607 3.55303 9.87868 3.10294C10.4413 2.65286 11.2044 2.4 12 2.4C12.7956 2.4 13.5587 2.65286 14.1213 3.10294C14.6839 3.55303 15 4.16348 15 4.8V6H9V4.8ZM21 20.4C21 20.7183 20.842 21.0235 20.5607 21.2485C20.2794 21.4736 19.8978 21.6 19.5 21.6H4.5C4.10218 21.6 3.72064 21.4736 3.43934 21.2485C3.15804 21.0235 3 20.7183 3 20.4V8.4H6V9.6C6 9.91826 6.15804 10.2235 6.43934 10.4485C6.72064 10.6736 7.10218 10.8 7.5 10.8C7.89782 10.8 8.27936 10.6736 8.56066 10.4485C8.84196 10.2235 9 9.91826 9 9.6V8.4H15V9.6C15 9.91826 15.158 10.2235 15.4393 10.4485C15.7206 10.6736 16.1022 10.8 16.5 10.8C16.8978 10.8 17.2794 10.6736 17.5607 10.4485C17.842 10.2235 18 9.91826 18 9.6V8.4H21V20.4Z" fill="white"/>
</svg>
