<svg width="48" height="45" viewBox="0 0 48 45" fill="none" xmlns="http://www.w3.org/2000/svg">
<path d="M0 44.5487H10.4555L15.6443 34.8882L10.324 25.2385L0 44.5487Z" fill="white"/>
<path d="M10.324 25.2385L15.6443 34.8882L16.9062 32.5416L11.6638 22.7308L10.324 25.2385Z" fill="white"/>
<path d="M10.324 25.2385L15.6443 34.8882L16.9062 32.5416L11.6638 22.7308L10.324 25.2385Z" fill="white"/>
<path d="M15.81 14.9766L11.6638 22.7308L14.6699 17.1031L15.81 14.9766Z" fill="white"/>
<path d="M21.0719 24.7767L19.7369 27.2683L16.9062 32.5416L19.8246 38.0028L24 30.2325L21.0719 24.7767Z" fill="white"/>
<path d="M23.9025 30.2325L22.5675 32.7188L19.7368 37.992L22.6552 43.4586L26.8306 35.683L23.9025 30.2325Z" fill="white"/>
<path d="M19.7369 27.2683L21.0719 24.7767L15.81 14.9766L14.6699 17.1031L19.7369 27.2683Z" fill="white"/>
<path d="M14.6699 17.1031L11.6638 22.7308L16.9062 32.5416L19.7369 27.2683L14.6699 17.1031Z" fill="white"/>
<path d="M24 19.3209L29.2862 9.66582L24 0L18.7332 9.50472V9.51009L15.8099 14.9766L21.0718 24.7767L24 19.3209Z" fill="white"/>
<path d="M36.3313 22.7308L32.19 14.9766L36.3313 22.7308L34.0901 26.9247L31.0938 32.5416L37.5396 44.5487H48L36.3313 22.7308Z" fill="white"/>
<path d="M29.2862 9.66582L24 19.3209L29.2862 9.66582Z" fill="white"/>
<path d="M31.9658 20.5882L34.09 26.9247L36.3312 22.7308L32.1899 14.9766L29.3884 20.1962L31.9658 20.5882Z" fill="white"/>
<path d="M31.9659 20.5882L29.3885 20.1962L26.9281 24.7767L31.0938 32.5416L34.0901 26.9247L31.9659 20.5882Z" fill="white"/>
</svg>
